<?xml version="1.0" encoding="UTF-8" standalone="no"?>
<!-- Created with Inkscape (http://www.inkscape.org/) -->

<svg
   xmlns:dc="http://purl.org/dc/elements/1.1/"
   xmlns:cc="http://creativecommons.org/ns#"
   xmlns:rdf="http://www.w3.org/1999/02/22-rdf-syntax-ns#"
   xmlns:svg="http://www.w3.org/2000/svg"
   xmlns="http://www.w3.org/2000/svg"
   xmlns:sodipodi="http://sodipodi.sourceforge.net/DTD/sodipodi-0.dtd"
   xmlns:inkscape="http://www.inkscape.org/namespaces/inkscape"
   width="150mm"
   height="150mm"
   viewBox="0 0 150 150"
   version="1.1"
   id="svg30"
   inkscape:version="0.92.1 r15371"
   sodipodi:docname="fav.svg">
  <defs
     id="defs24" />
  <sodipodi:namedview
     id="base"
     pagecolor="#ffffff"
     bordercolor="#666666"
     borderopacity="1.0"
     inkscape:pageopacity="0.0"
     inkscape:pageshadow="2"
     inkscape:zoom="1.0112963"
     inkscape:cx="255.11811"
     inkscape:cy="373.7777"
     inkscape:document-units="mm"
     inkscape:current-layer="layer1"
     showgrid="false"
     showborder="true"
     inkscape:window-width="1024"
     inkscape:window-height="715"
     inkscape:window-x="-8"
     inkscape:window-y="-8"
     inkscape:window-maximized="1" />
  <metadata
     id="metadata27">
    <rdf:RDF>
      <cc:Work
         rdf:about="">
        <dc:format>image/svg+xml</dc:format>
        <dc:type
           rdf:resource="http://purl.org/dc/dcmitype/StillImage" />
        <dc:title></dc:title>
      </cc:Work>
    </rdf:RDF>
  </metadata>
  <g
     inkscape:label="Layer 1"
     inkscape:groupmode="layer"
     id="layer1"
     transform="translate(0,-147)">
    <rect
       style="opacity:1;fill:#ffffff;fill-opacity:1;fill-rule:nonzero;stroke:none;stroke-width:2.66832852;stroke-miterlimit:4;stroke-dasharray:none;stroke-opacity:0"
       id="rect40"
       width="150"
       height="150"
       x="0"
       y="147.00003"
       ry="25.714287" />
    <path
       style="opacity:1;fill:#008080;fill-opacity:1;fill-rule:nonzero;stroke:none;stroke-width:0.66517013;stroke-miterlimit:4;stroke-dasharray:none;stroke-opacity:0"
       d="m 16.642438,266.89152 c -1.877492,-0.28937 -3.472088,-1.17053 -4.602647,-2.5434 -1.556045,-1.88954 -1.819386,-3.35348 -1.554296,-8.64043 1.004877,-20.04122 1.011487,-46.93895 0.01458,-59.30755 -0.6833605,-8.4784 -0.6673655,-12.67743 0.05421,-14.23117 0.976888,-2.1035 3.356745,-4.18994 5.508057,-4.82897 4.280111,-1.27137 6.315011,0.57245 14.717111,13.33515 12.660925,19.23182 25.498231,35.84008 36.968447,47.82788 l 4.133641,4.32018 -0.1577,-23.34017 c -0.12486,-18.48029 -0.27447,-24.18205 -0.71849,-27.38336 -1.363054,-9.82743 -0.30112,-13.18918 4.49072,-14.21617 2.52395,-0.54094 3.73576,-0.2097 5.36756,1.46723 2.17978,2.24007 3.5406,6.88781 4.33783,14.81549 0.62033,6.16851 0.1446,56.3711 -0.58448,61.67802 -0.9125,6.64207 -2.81432,9.04081 -7.15493,9.02442 -3.28217,-0.0124 -5.24796,-1.28094 -10.817986,-6.98096 -11.232617,-11.49478 -25.684533,-29.2832 -38.511348,-47.40245 l -2.856904,-4.03567 -0.274508,5.32215 c -0.150978,2.92717 -0.180785,13.75769 -0.06624,24.0678 0.134288,12.08671 0.07661,19.66293 -0.162386,21.32789 -0.549984,3.83155 -1.445769,6.29588 -2.886736,7.94147 -1.428641,1.6315 -2.924459,2.14003 -5.243508,1.78262 z"
       id="path36"
       inkscape:connector-curvature="0" />
    <path
       style="opacity:1;fill:#c8ab37;fill-opacity:1;fill-rule:nonzero;stroke:none;stroke-width:0.66517013;stroke-miterlimit:4;stroke-dasharray:none;stroke-opacity:0"
       d="m 129.23725,265.21483 c -0.89032,-0.51684 -2.16162,-1.46592 -2.8251,-2.10905 -1.9844,-1.92352 -5.62804,-6.86578 -8.34535,-11.31971 -3.37732,-5.53571 -11.98343,-18.69882 -12.21161,-18.67774 -0.0989,0.009 -1.39393,1.53482 -2.87779,3.39043 -3.497289,4.37345 -14.554519,17.60119 -19.384739,23.18993 -3.96769,4.59076 -5.54187,5.72344 -7.95427,5.72344 -4.00719,0 -7.734859,-4.46045 -7.013074,-8.39171 0.391704,-2.13346 1.022764,-3.05217 6.400884,-9.31854 9.50603,-11.07606 22.19562,-26.4824 22.19562,-26.94755 0,-0.35002 -4.17081,-6.06543 -7.90162,-10.82789 -1.50449,-1.92052 -4.51006,-5.97289 -6.67906,-9.00527 -2.16899,-3.03238 -5.36157,-7.03588 -7.09463,-8.89667 -3.47443,-3.73048 -3.86509,-4.45122 -3.86509,-7.13084 0,-2.07456 0.85665,-4.05716 2.39519,-5.54336 4.58352,-4.4276 10.28346,-0.73969 19.98923,12.93317 3.90041,5.49464 7.077529,9.76175 11.750069,15.78125 l 0.98005,1.26258 6.43302,-9.34894 c 6.92455,-10.06328 7.59696,-10.98 11.65025,-15.88333 4.73497,-5.72795 7.53253,-7.32025 10.57481,-6.01888 1.62483,0.69504 3.74199,3.22264 4.22062,5.03883 0.83692,3.1758 0.42806,4.03839 -5.71883,12.06526 -1.85637,2.42413 -5.16314,7.10587 -7.34838,10.40387 -2.18526,3.29799 -5.50001,8.13909 -7.36613,10.75801 -1.86613,2.61891 -3.4676,4.96041 -3.55883,5.20335 -0.22651,0.60311 12.57483,20.1362 18.07538,27.58062 2.45414,3.3214 4.65326,6.40395 4.88695,6.8501 0.60826,1.16132 0.52266,4.66017 -0.14583,5.96025 -1.97681,3.84452 -5.89649,5.23197 -9.26174,3.27839 z"
       id="path38"
       inkscape:connector-curvature="0" />
  </g>
</svg>
