<?xml version="1.0" encoding="UTF-8" standalone="no"?>
<!-- Created with Inkscape (http://www.inkscape.org/) -->

<svg
   xmlns:dc="http://purl.org/dc/elements/1.1/"
   xmlns:cc="http://creativecommons.org/ns#"
   xmlns:rdf="http://www.w3.org/1999/02/22-rdf-syntax-ns#"
   xmlns:svg="http://www.w3.org/2000/svg"
   xmlns="http://www.w3.org/2000/svg"
   xmlns:sodipodi="http://sodipodi.sourceforge.net/DTD/sodipodi-0.dtd"
   xmlns:inkscape="http://www.inkscape.org/namespaces/inkscape"
   width="200mm"
   height="40mm"
   viewBox="0 0 200 40"
   version="1.1"
   id="svg8"
   inkscape:version="0.92.1 r15371"
   sodipodi:docname="logo.svg">
  <defs
     id="defs2" />
  <sodipodi:namedview
     id="base"
     pagecolor="#ffffff"
     bordercolor="#666666"
     borderopacity="1.0"
     inkscape:pageopacity="0.0"
     inkscape:pageshadow="2"
     inkscape:zoom="1.1893021"
     inkscape:cx="377.95276"
     inkscape:cy="75.590551"
     inkscape:document-units="mm"
     inkscape:current-layer="layer1"
     showgrid="false"
     showborder="false"
     inkscape:window-width="1024"
     inkscape:window-height="715"
     inkscape:window-x="-8"
     inkscape:window-y="-8"
     inkscape:window-maximized="1" />
  <metadata
     id="metadata5">
    <rdf:RDF>
      <cc:Work
         rdf:about="">
        <dc:format>image/svg+xml</dc:format>
        <dc:type
           rdf:resource="http://purl.org/dc/dcmitype/StillImage" />
        <dc:title></dc:title>
      </cc:Work>
    </rdf:RDF>
  </metadata>
  <g
     inkscape:label="Layer 1"
     inkscape:groupmode="layer"
     id="layer1"
     transform="translate(0,-257)">
    <path
       style="opacity:1;fill:#008080;fill-opacity:1;fill-rule:nonzero;stroke:none;stroke-width:0.42904773;stroke-miterlimit:4;stroke-dasharray:none;stroke-opacity:0"
       d="m 2.5012544,296.78244 c -0.4101833,-0.10886 -1.0730923,-0.50964 -1.4731311,-0.89061 -0.85988212,-0.81893 -0.83766195,-0.2647 -0.38141996,-9.51368 0.37059426,-7.51273 0.21175979,-16.8322 -0.38649773,-22.67739 -0.32324499,-3.15823 -0.33843255,-3.98079 -0.0838555,-4.54167 0.4143654,-0.91289 1.51712589,-1.7289 2.74380979,-2.03034 0.8823695,-0.21682 1.1359507,-0.18331 2.1371529,0.28246 0.9221842,0.42903 1.9071611,1.4053 5.2333322,5.18707 7.430625,8.44843 12.205978,13.28929 18.396458,18.64883 3.660991,3.16958 9.539873,7.78869 9.712456,7.63118 0.235243,-0.21467 -0.41975,-17.87894 -0.765705,-20.65006 -0.218074,-1.74681 -0.662519,-3.79972 -1.109488,-5.12482 -0.835449,-2.4768 -0.900597,-3.17592 -0.398182,-4.27324 0.405848,-0.8864 0.95438,-1.20072 2.404724,-1.37796 1.854838,-0.22666 3.370173,1.09256 4.350629,3.78763 1.228671,3.37735 1.366153,5.23291 1.306427,17.63246 -0.06789,14.09226 -0.280273,15.86843 -1.994174,16.67723 -1.902307,0.89772 -3.741193,0.26081 -7.397192,-2.56204 -7.18452,-5.54727 -16.182109,-13.95707 -25.3606129,-23.70386 -1.3108448,-1.39201 -2.4064308,-2.50108 -2.4346356,-2.46461 -0.028204,0.0365 -0.1110684,6.21663 -0.1841415,13.73369 l -0.1328597,13.66737 -0.5874819,1.08907 c -0.4181973,0.77524 -0.8227261,1.17876 -1.4038652,1.40034 -0.9135276,0.34833 -1.1272898,0.35544 -2.1917468,0.0729 z"
       id="path14"
       inkscape:connector-curvature="0" />
    <path
       style="opacity:1;fill:#008080;fill-opacity:1;fill-rule:nonzero;stroke:none;stroke-width:0.42904773;stroke-miterlimit:4;stroke-dasharray:none;stroke-opacity:0"
       d="m 61.517842,295.78857 c -5.263104,-0.91103 -8.816237,-3.11114 -10.580344,-6.55134 -0.681139,-1.3283 -0.779972,-1.77913 -0.872238,-3.97885 -0.168227,-4.01074 0.795386,-7.24627 2.996395,-10.06103 3.634663,-4.64819 8.822901,-6.43428 15.985244,-5.50305 6.115836,0.79517 9.151462,3.4427 8.360263,7.29141 -0.258444,1.25717 -2.282378,2.97474 -4.816944,4.08781 -1.617464,0.71032 -13.43637,5.21575 -16.67874,6.35802 -0.61211,0.21565 -0.609954,0.21953 0.781182,1.40591 0.767243,0.65432 1.984502,1.45289 2.705023,1.77458 2.701082,1.20598 6.547441,1.55373 10.176547,0.92008 3.37666,-0.58958 4.828527,-1.14633 6.465701,-2.47943 1.880367,-1.53112 2.790709,-1.63295 4.080004,-0.45638 0.974087,0.88892 1.015846,1.21999 0.31945,2.53277 -0.869808,1.63969 -3.974716,3.22815 -8.320644,4.25684 -2.976285,0.70447 -7.798993,0.88766 -10.600899,0.40266 z m -0.390277,-14.80269 c 5.666448,-2.12725 11.484296,-4.70363 11.650788,-5.15943 0.136258,-0.37304 -2.135752,-1.3893 -4.00061,-1.78945 -2.50056,-0.53656 -5.788905,-0.34665 -7.540685,0.43547 -1.79719,0.80241 -3.68175,2.67493 -4.706482,4.67641 -0.972943,1.90033 -1.675135,3.98046 -1.343684,3.98046 0.127071,0 2.800371,-0.96456 5.940673,-2.14346 z"
       id="path16"
       inkscape:connector-curvature="0" />
    <path
       style="opacity:1;fill:#008080;fill-opacity:1;fill-rule:nonzero;stroke:none;stroke-width:0.42904773;stroke-miterlimit:4;stroke-dasharray:none;stroke-opacity:0"
       d="m 110.48783,296.65563 c -2.2618,-1.0177 -3.74111,-4.5634 -5.22268,-12.51803 -0.41313,-2.21815 -0.81471,-4.28506 -0.89239,-4.59314 -0.12078,-0.47907 -0.33147,-0.21963 -1.4556,1.79244 -0.72291,1.29392 -2.4479,4.77238 -3.833293,7.72991 -2.085152,4.45135 -2.705126,5.55968 -3.60031,6.43625 -1.789237,1.75206 -3.505838,1.75511 -4.719699,0.008 -1.734145,-2.49539 -3.005321,-6.702 -4.766046,-15.77192 -1.301409,-6.70387 -1.402735,-8.46676 -0.53231,-9.26108 0.832304,-0.75953 2.189471,-1.05748 3.297832,-0.72398 1.647287,0.49565 2.006599,1.39459 2.748859,6.87725 0.511933,3.78136 2.047352,12.88699 2.2008,13.05161 0.196595,0.21089 2.867698,-5.9329 5.545769,-12.75581 1.121198,-2.85646 2.146908,-5.37708 2.279368,-5.60139 0.54315,-0.91972 1.49549,-1.48027 2.69337,-1.5853 1.07709,-0.0945 1.28524,-0.0332 2.09585,0.61625 0.68104,0.54568 1.01894,1.08323 1.38893,2.20956 0.37399,1.13852 3.31869,14.0527 4.10722,18.01252 0.0674,0.33889 0.19931,0.61615 0.29297,0.61615 0.22416,0 2.52337,-6.95386 4.68609,-14.17284 0.95087,-3.17392 1.851,-6.01542 2.00029,-6.31442 0.36537,-0.73178 1.44968,-1.10411 2.80845,-0.96434 1.4617,0.15035 2.55525,1.05291 2.55525,2.109 0,1.63062 -6.00596,18.52082 -7.52802,21.17058 -1.9819,3.45032 -3.95957,4.61824 -6.1507,3.63232 z"
       id="path18"
       inkscape:connector-curvature="0" />
    <path
       style="opacity:1;fill:#008080;fill-opacity:1;fill-rule:nonzero;stroke:none;stroke-width:0.42904773;stroke-miterlimit:4;stroke-dasharray:none;stroke-opacity:0"
       d="m 137.30503,296.3247 c -3.88964,-0.37359 -7.79954,-1.70008 -8.95199,-3.03709 -1.0711,-1.24263 -0.83021,-2.6766 0.58162,-3.46226 1.15778,-0.64428 2.29297,-0.53908 3.81054,0.35315 1.77877,1.0458 3.42836,1.34217 7.50303,1.348 5.28447,0.008 7.48842,-0.81539 7.48842,-2.79621 0,-2.5533 -2.04525,-3.7633 -8.34775,-4.93867 -4.13897,-0.77189 -5.69345,-1.23045 -7.14735,-2.10848 -2.41654,-1.45937 -2.728,-5.14837 -0.66712,-7.90138 1.39609,-1.86497 3.73212,-2.98467 8.79656,-4.21634 1.823,-0.44336 4.58512,-1.16587 6.13805,-1.60559 4.3195,-1.2231 6.42995,-1.05548 7.06139,0.56083 0.31585,0.80846 1.04083,4.32552 1.04083,5.04931 0,1.49836 -1.135,2.3896 -3.04314,2.3896 -1.52489,0 -2.31161,-0.65191 -2.71157,-2.24697 -0.25205,-1.00514 -0.3916,-1.2135 -0.77503,-1.15713 -1.50543,0.22131 -7.32566,1.76922 -8.58809,2.28402 -1.87168,0.76325 -3.29631,2.01381 -3.29631,2.89353 0,0.63181 0.0241,0.64211 2.39384,1.02112 4.59504,0.73492 8.38064,1.77516 10.34925,2.84381 1.41781,0.76966 3.20534,2.45 3.89338,3.65992 0.93079,1.63683 1.07183,4.48419 0.30291,6.11534 -1.28099,2.71736 -4.90206,4.45819 -10.33091,4.96659 -2.7262,0.2553 -2.68407,0.25541 -5.50056,-0.0151 z"
       id="path20"
       inkscape:connector-curvature="0" />
    <path
       style="opacity:1;fill:#c8ab37;fill-opacity:1;fill-rule:nonzero;stroke:none;stroke-width:0.42904773;stroke-miterlimit:4;stroke-dasharray:none;stroke-opacity:0"
       d="m 194.91152,296.6543 c -1.17222,-0.52741 -4.01187,-3.35403 -7.05974,-7.02735 -2.37024,-2.85663 -6.64075,-7.78317 -7.27758,-8.39556 -0.14243,-0.13696 -2.29321,1.64919 -5.80671,4.82232 -10.25271,9.25945 -11.39916,10.22832 -12.39843,10.47802 -1.90841,0.47687 -3.86226,-0.67779 -3.86226,-2.28248 0,-0.88088 0.1449,-1.02554 9.02294,-9.00861 9.00745,-8.09944 9.0223,-8.11432 8.65464,-8.67976 -0.20256,-0.31153 -1.97741,-2.16226 -3.9441,-4.11273 -1.96671,-1.95048 -4.73698,-4.75702 -6.15614,-6.23676 -1.41915,-1.47974 -3.16205,-3.09294 -3.87311,-3.58488 -1.27554,-0.8825 -1.98557,-1.76319 -1.98557,-2.46284 0,-0.65715 0.73644,-1.66886 1.46509,-2.0127 2.33101,-1.10002 4.83382,0.30082 9.4005,5.26151 2.83171,3.07602 9.55325,9.6599 9.78604,9.58561 0.10899,-0.0347 2.27108,-2.33183 4.80456,-5.10451 8.56605,-9.37482 10.50846,-10.84915 12.84251,-9.74769 0.95791,0.45204 1.47584,1.18103 1.47584,2.07723 0,0.77509 -0.0183,0.7968 -3.89329,4.62097 -0.86028,0.849 -3.06362,3.2688 -4.8963,5.37732 -1.83268,2.10854 -4.09861,4.55988 -5.03538,5.44743 l -1.70322,1.61374 5.27064,6.00414 c 2.89885,3.30228 6.03839,6.76034 6.97675,7.68456 2.40072,2.36458 2.78976,2.87738 2.78976,3.67728 0,1.85756 -2.50133,2.94883 -4.59744,2.00574 z"
       id="path22"
       inkscape:connector-curvature="0" />
  </g>
</svg>
