<?xml version="1.0" encoding="UTF-8" standalone="no"?>
<!-- Created with Inkscape (http://www.inkscape.org/) -->

<svg
   xmlns:dc="http://purl.org/dc/elements/1.1/"
   xmlns:cc="http://creativecommons.org/ns#"
   xmlns:rdf="http://www.w3.org/1999/02/22-rdf-syntax-ns#"
   xmlns:svg="http://www.w3.org/2000/svg"
   xmlns="http://www.w3.org/2000/svg"
   xmlns:sodipodi="http://sodipodi.sourceforge.net/DTD/sodipodi-0.dtd"
   xmlns:inkscape="http://www.inkscape.org/namespaces/inkscape"
   width="70mm"
   height="70mm"
   viewBox="0 0 70 70"
   version="1.1"
   id="svg8"
   inkscape:version="0.92.1 r15371"
   sodipodi:docname="search-icon.svg">
  <defs
     id="defs2" />
  <sodipodi:namedview
     id="base"
     pagecolor="#ffffff"
     bordercolor="#666666"
     borderopacity="1.0"
     inkscape:pageopacity="0.0"
     inkscape:pageshadow="2"
     inkscape:zoom="0.68955538"
     inkscape:cx="168.99669"
     inkscape:cy="124.822"
     inkscape:document-units="mm"
     inkscape:current-layer="layer1"
     showgrid="false"
     inkscape:window-width="1024"
     inkscape:window-height="715"
     inkscape:window-x="-8"
     inkscape:window-y="-8"
     inkscape:window-maximized="1" />
  <metadata
     id="metadata5">
    <rdf:RDF>
      <cc:Work
         rdf:about="">
        <dc:format>image/svg+xml</dc:format>
        <dc:type
           rdf:resource="http://purl.org/dc/dcmitype/StillImage" />
        <dc:title></dc:title>
      </cc:Work>
    </rdf:RDF>
  </metadata>
  <g
     inkscape:label="Layer 1"
     inkscape:groupmode="layer"
     id="layer1"
     transform="translate(0,-227)">
    <path
       style="opacity:1;fill:#4d4d4d;fill-opacity:1;fill-rule:nonzero;stroke:none;stroke-width:0.25660923;stroke-miterlimit:4;stroke-dasharray:none;stroke-opacity:0"
       d="m 15.456586,242.08765 a 18.101259,17.886597 0 0 0 -0.307819,25.29367 18.101259,17.886597 0 0 0 22.737398,2.53073 l 0.896771,0.90771 -0.545378,0.5261 c -0.415435,0.40075 -0.423119,1.05369 -0.01756,1.46419 l 13.709534,13.87673 c 0.405562,0.4105 1.066329,0.41861 1.481764,0.0178 l 6.271972,-6.05031 c 0.415442,-0.40075 0.423122,-1.05369 0.01757,-1.46419 L 45.991296,265.3134 c -0.405561,-0.4105 -1.066326,-0.41861 -1.481762,-0.0178 l -0.545377,0.5261 -0.883965,-0.89474 a 18.101259,17.886597 0 0 0 -2.026389,-22.53508 18.101259,17.886597 0 0 0 -25.597217,-0.30417 z m 2.529043,2.5599 a 14.481008,14.309277 0 0 1 1.084958,-0.94693 14.481008,14.309277 0 0 1 1.175163,-0.83498 14.481008,14.309277 0 0 1 1.253605,-0.71483 14.481008,14.309277 0 0 1 1.319796,-0.58749 14.481008,14.309277 0 0 1 1.37268,-0.45457 14.481008,14.309277 0 0 1 1.411489,-0.31684 14.481008,14.309277 0 0 1 1.436499,-0.17616 14.481008,14.309277 0 0 1 1.446933,-0.0332 14.481008,14.309277 0 0 1 1.443347,0.10919 14.481008,14.309277 0 0 1 1.424949,0.25146 14.481008,14.309277 0 0 1 1.392558,0.39069 14.481008,14.309277 0 0 1 1.345928,0.52609 14.481008,14.309277 0 0 1 1.286136,0.65611 14.481008,14.309277 0 0 1 1.213458,0.77996 14.481008,14.309277 0 0 1 1.128435,0.89555 14.481008,14.309277 0 0 1 0.741606,0.69931 14.481008,14.309277 0 0 1 0.958277,1.07211 14.481008,14.309277 0 0 1 0.845004,1.16124 14.481008,14.309277 0 0 1 0.723401,1.23874 14.481008,14.309277 0 0 1 0.594805,1.3044 14.481008,14.309277 0 0 1 0.459765,1.35614 14.481008,14.309277 0 0 1 0.320645,1.39475 14.481008,14.309277 0 0 1 0.178258,1.41946 14.481008,14.309277 0 0 1 0.03392,1.43005 14.481008,14.309277 0 0 1 -0.110754,1.42596 14.481008,14.309277 0 0 1 -0.254474,1.40805 14.481008,14.309277 0 0 1 -0.39538,1.37604 14.481008,14.309277 0 0 1 -0.532404,1.32997 14.481008,14.309277 0 0 1 -0.663985,1.27088 14.481008,14.309277 0 0 1 -0.789317,1.19907 14.481008,14.309277 0 0 1 -0.906044,1.11532 14.481008,14.309277 0 0 1 -0.707974,0.73255 14.481008,14.309277 0 0 1 -1.084956,0.94692 14.481008,14.309277 0 0 1 -1.175164,0.83499 14.481008,14.309277 0 0 1 -1.253605,0.71482 14.481008,14.309277 0 0 1 -1.319796,0.58749 14.481008,14.309277 0 0 1 -1.372422,0.45483 14.481008,14.309277 0 0 1 -1.411484,0.31685 14.481008,14.309277 0 0 1 -1.436766,0.17588 14.481008,14.309277 0 0 1 -1.446929,0.0333 14.481008,14.309277 0 0 1 -1.443349,-0.10919 14.481008,14.309277 0 0 1 -1.424947,-0.25146 14.481008,14.309277 0 0 1 -1.392559,-0.39068 14.481008,14.309277 0 0 1 -1.345927,-0.52609 14.481008,14.309277 0 0 1 -1.286142,-0.65611 14.481008,14.309277 0 0 1 -1.213452,-0.77996 14.481008,14.309277 0 0 1 -1.12844,-0.89556 14.481008,14.309277 0 0 1 -0.741611,-0.69931 14.481008,14.309277 0 0 1 -0.958266,-1.07211 14.481008,14.309277 0 0 1 -0.845004,-1.16123 14.481008,14.309277 0 0 1 -0.723401,-1.23874 14.481008,14.309277 0 0 1 -0.594543,-1.30414 14.481008,14.309277 0 0 1 -0.460294,-1.35615 14.481008,14.309277 0 0 1 -0.320647,-1.39475 14.481008,14.309277 0 0 1 -0.17799,-1.41972 14.481008,14.309277 0 0 1 -0.03367,-1.42977 14.481008,14.309277 0 0 1 0.110754,-1.42597 14.481008,14.309277 0 0 1 0.254212,-1.40831 14.481008,14.309277 0 0 1 0.395379,-1.37604 14.481008,14.309277 0 0 1 0.532404,-1.32997 14.481008,14.309277 0 0 1 0.663984,-1.27089 14.481008,14.309277 0 0 1 0.789318,-1.19906 14.481008,14.309277 0 0 1 0.906307,-1.11505 14.481008,14.309277 0 0 1 0.70772,-0.73281 z"
       id="path12"
       inkscape:connector-curvature="0" />
  </g>
</svg>
